<svg width="46" height="42" viewBox="0 0 46 42" fill="none" xmlns="http://www.w3.org/2000/svg">
<rect x="1.5" y="1.5" width="43" height="39" rx="8.5" stroke="#1C69FF" stroke-width="3"/>
<path d="M23 9.75C25.0625 9.75 26.75 11.4375 26.75 13.5C26.75 15.5625 25.0625 17.25 23 17.25C20.9375 17.25 19.25 15.5625 19.25 13.5C19.25 11.4375 20.9375 9.75 23 9.75ZM23 26.625C28.0625 26.625 33.875 29.0438 34.25 30.375V32.25H11.75V30.3938C12.125 29.0438 17.9375 26.625 23 26.625ZM23 6C18.8562 6 15.5 9.35625 15.5 13.5C15.5 17.6438 18.8562 21 23 21C27.1437 21 30.5 17.6438 30.5 13.5C30.5 9.35625 27.1437 6 23 6ZM23 22.875C17.9937 22.875 8 25.3875 8 30.375V36H38V30.375C38 25.3875 28.0063 22.875 23 22.875Z" fill="#1C69FF"/>
</svg>
