<svg width="178" height="550" viewBox="0 0 178 550" fill="none" xmlns="http://www.w3.org/2000/svg">
<path d="M130.886 446C113.286 486 196.886 532 240.886 550L330.886 -142C242.219 -129.333 62.4857 -96 52.8857 -64C40.8857 -24 64.8857 36 84.8857 82C104.886 128 96.8857 122 64.8857 194C32.8857 266 108.886 272 130.886 324C152.886 376 152.886 396 130.886 446Z" fill="#7AA5FA"/>
<path d="M112.669 280C82.2686 356.8 186.669 457.333 242.669 498L242.669 -52C172.669 -49.3333 27.4687 -33.6 6.6687 8C-19.3313 60 38.6687 106 44.6687 116C50.6687 126 150.669 184 112.669 280Z" fill="#1C69FF"/>
</svg>
