<svg width="34" height="45" viewBox="0 0 34 45" fill="none" xmlns="http://www.w3.org/2000/svg">
<path d="M32.5838 8.4375H5.47696C5.11554 8.43241 4.7589 8.35469 4.42855 8.20903C4.0982 8.06337 3.80098 7.85278 3.55483 7.58996C3.30867 7.32714 3.11867 7.01754 2.99629 6.67983C2.87391 6.34212 2.82168 5.9833 2.84275 5.625C2.84099 4.91197 3.11204 4.22489 3.60108 3.70275C4.09011 3.18062 4.76062 2.86241 5.47696 2.8125H32.5838C32.9594 2.8125 33.3196 2.66434 33.5852 2.40062C33.8508 2.1369 34 1.77921 34 1.40625C34 1.03329 33.8508 0.675604 33.5852 0.411881C33.3196 0.148158 32.9594 0 32.5838 0H5.47696C4.00915 0.051042 2.61867 0.666132 1.5988 1.71554C0.578925 2.76495 0.00937603 4.16665 0.0102759 5.625C-0.00342529 5.85449 -0.00342529 6.08458 0.0102759 6.31406C-0.00336931 6.42615 -0.00336931 6.53947 0.0102759 6.65156V39.375C0.00937603 40.8334 0.578925 42.235 1.5988 43.2845C2.61867 44.3339 4.00915 44.949 5.47696 45H32.5838C32.9594 45 33.3196 44.8518 33.5852 44.5881C33.8508 44.3244 34 43.9667 34 43.5938V10.1953V10.0687V9.94219C34.0008 9.5596 33.8548 9.19107 33.5918 8.91156C33.3287 8.63204 32.9682 8.46253 32.5838 8.4375V8.4375Z" fill="#1C69FF"/>
</svg>
