<svg width="46" height="42" viewBox="0 0 46 42" fill="none" xmlns="http://www.w3.org/2000/svg">
<rect x="1.5" y="1.5" width="43" height="39" rx="8.5" stroke="#1C69FF" stroke-width="3"/>
<path d="M33 9H31.5V7.5C31.5 6.675 30.825 6 30 6C29.175 6 28.5 6.675 28.5 7.5V9H16.5V7.5C16.5 6.675 15.825 6 15 6C14.175 6 13.5 6.675 13.5 7.5V9H12C10.335 9 9.015 10.35 9.015 12L9 33C9 33.7956 9.31607 34.5587 9.87868 35.1213C10.4413 35.6839 11.2044 36 12 36H33C34.65 36 36 34.65 36 33V12C36 10.35 34.65 9 33 9ZM33 31.5C33 32.325 32.325 33 31.5 33H13.5C12.675 33 12 32.325 12 31.5V16.5H33V31.5ZM15 19.5H18V22.5H15V19.5ZM21 19.5H24V22.5H21V19.5ZM27 19.5H30V22.5H27V19.5Z" fill="#1C69FF"/>
</svg>
